# xmcd CD database file
#
# Track frame offsets:
#	150
#	19818
#	41074
#	62138
#	86045
#	103863
#	127181
#	146257
#	162532
#	182903
#	199161
#	220103
#
# Disc length: 3303 seconds
#
# Revision: 0
# Processed by: cddbd v1.5.1PL0 Copyright (c) Steve Scherf et al.
# Submitted via: CDex 1.51
#
DISCID=b60ce50c
DTITLE=SMAP - SMAP 015 - Drink! Smap!
DYEAR=2002
DGENRE=JPop
TTITLE0=Theme of 015
TTITLE1=GO NOW!
TTITLE2=世界に一つだけの花
TTITLE3=時間よとまれ
TTITLE4=Over Flow
TTITLE5=ずっとずっと
TTITLE6=Jive
TTITLE7=People Song 〜みんなのうた〜
TTITLE8=幸せの果てに
TTITLE9=It Can't Be
TTITLE10=freebird
TTITLE11=FIVE RESPECT
EXTD=YEAR: 2002
EXTT0=
EXTT1=
EXTT2=
EXTT3=
EXTT4=
EXTT5=
EXTT6=
EXTT7=
EXTT8=
EXTT9=
EXTT10=
EXTT11=
PLAYORDER=
